<?xml version="1.0" standalone="no"?>
<!DOCTYPE svg PUBLIC "-//W3C//DTD SVG 20010904//EN"
 "http://www.w3.org/TR/2001/REC-SVG-20010904/DTD/svg10.dtd">
<svg version="1.0" xmlns="http://www.w3.org/2000/svg"
 width="2300.000000pt" height="700.000000pt" viewBox="0 0 2300.000000 700.000000"
 preserveAspectRatio="xMidYMid meet">

<g transform="translate(0.000000,700.000000) scale(0.100000,-0.100000)"
fill="#000000" stroke="none">
<path d="M0 3500 l0 -3500 11500 0 11500 0 0 3500 0 3500 -11500 0 -11500 0 0
-3500z m4885 2976 c685 -91 1300 -400 1775 -892 449 -466 717 -1021 817 -1689
27 -186 25 -620 -5 -815 -137 -886 -624 -1636 -1370 -2109 -354 -225 -755
-370 -1207 -438 -170 -25 -610 -25 -780 0 -704 105 -1291 402 -1768 896 -446
462 -715 1019 -813 1686 -26 170 -26 610 0 780 89 608 320 1121 707 1570 207
241 498 481 769 637 358 205 777 340 1191 383 163 17 524 12 684 -9z m12360
-1387 c63 -30 124 -90 156 -154 20 -42 24 -64 24 -145 0 -80 -4 -103 -24 -144
-31 -63 -86 -118 -153 -153 -47 -24 -64 -28 -143 -28 -71 0 -100 5 -137 22
-66 30 -130 93 -163 160 -25 50 -29 70 -30 143 0 73 4 93 28 142 34 70 109
140 180 168 72 28 191 23 262 -11z m1500 -113 c39 -8 88 -20 110 -28 l40 -13
3 -218 c2 -188 0 -218 -13 -223 -8 -4 -55 4 -103 16 -175 46 -318 26 -372 -50
-29 -40 -50 -126 -50 -202 l0 -58 404 0 c311 0 406 -3 413 -12 5 -7 131 -329
279 -716 148 -387 270 -700 272 -695 1 4 114 325 250 713 l247 705 261 3 c220
2 263 0 273 -12 10 -12 -64 -214 -404 -1093 -230 -593 -435 -1115 -457 -1160
-109 -231 -243 -361 -434 -420 -88 -27 -338 -24 -447 5 -95 26 -246 91 -259
112 -7 11 14 66 74 200 97 213 88 206 207 155 85 -36 201 -45 265 -21 51 20
107 76 138 141 l22 44 -331 793 -331 793 -216 3 -216 2 0 -804 c0 -786 0 -806
-19 -816 -12 -6 -109 -10 -246 -10 -137 0 -234 4 -246 10 -19 10 -19 30 -19
815 l0 805 -124 0 c-104 0 -125 3 -130 16 -9 23 -7 417 2 431 5 8 47 13 127
15 l120 3 6 135 c8 158 27 247 74 346 79 163 214 261 414 299 91 17 309 13
416 -9z m-9107 -87 c206 -22 371 -70 538 -154 102 -52 243 -145 278 -184 22
-25 34 -4 -136 -243 -65 -93 -125 -168 -133 -168 -7 0 -54 27 -104 61 -195
130 -383 198 -573 206 -179 9 -295 -22 -376 -100 -99 -94 -108 -252 -22 -350
70 -79 185 -127 510 -212 421 -110 604 -197 753 -354 138 -147 198 -356 168
-586 -23 -174 -87 -315 -196 -433 -122 -131 -263 -209 -480 -264 -81 -21 -113
-23 -315 -23 -195 1 -239 4 -330 23 -147 32 -297 84 -422 147 -171 85 -388
244 -388 284 0 17 272 346 301 364 13 8 34 -3 97 -54 249 -198 486 -289 757
-289 160 0 312 53 380 132 59 70 81 186 51 270 -43 119 -160 181 -521 274
-115 30 -259 70 -320 90 -413 136 -593 318 -635 645 -46 355 127 671 453 824
188 89 418 121 665 94z m6426 -145 c14 -13 16 -53 16 -280 l0 -264 264 0 c231
0 265 -2 270 -16 8 -20 8 -408 0 -428 -5 -14 -39 -16 -270 -16 l-264 0 0 -520
c0 -570 -1 -562 59 -613 39 -32 89 -47 162 -47 61 0 190 30 239 55 17 9 40 13
51 10 19 -6 19 -15 17 -218 l-3 -212 -72 -36 c-96 -47 -194 -70 -330 -77 -289
-13 -496 85 -588 280 -66 139 -67 150 -72 795 l-5 582 -121 3 -122 3 0 225 0
225 122 3 122 3 3 270 c3 227 5 271 18 279 8 5 120 10 252 10 202 0 239 -2
252 -16z m-3967 -519 c345 -73 609 -311 722 -650 17 -50 37 -131 46 -180 20
-117 21 -352 0 -467 -84 -477 -411 -801 -861 -850 -254 -28 -497 51 -675 219
l-69 65 0 -419 c0 -313 -3 -422 -12 -431 -18 -18 -491 -17 -507 2 -8 10 -10
370 -9 1347 l3 1334 249 3 c175 2 253 -1 262 -9 11 -9 14 -42 14 -131 l0 -120
84 78 c120 114 237 178 380 209 83 18 288 18 373 0z m2233 5 c97 -16 245 -64
334 -110 275 -141 476 -391 552 -688 32 -121 42 -311 24 -433 -33 -229 -138
-439 -304 -605 -196 -197 -455 -309 -742 -321 -208 -9 -370 22 -541 102 -131
62 -231 134 -331 240 -101 107 -171 218 -219 347 -57 151 -67 213 -67 398 1
145 4 177 27 263 81 303 280 553 552 693 170 88 313 122 515 123 74 1 164 -4
200 -9z m6977 -61 c113 -54 178 -160 178 -290 -1 -184 -141 -323 -325 -323
-183 0 -320 137 -320 322 0 90 24 154 83 218 102 113 245 140 384 73z m-3947
12 c7 -13 10 -353 10 -1030 0 -904 -2 -1011 -16 -1025 -13 -14 -50 -16 -252
-16 -132 0 -244 5 -252 10 -13 8 -15 135 -18 1025 -1 695 1 1022 8 1035 10 19
23 20 260 20 236 0 250 -1 260 -19z"/>
<path d="M3910 4913 c-298 -7 -621 -41 -890 -93 -168 -32 -393 -91 -437 -114
-45 -23 -94 -77 -119 -131 -27 -56 -31 -156 -11 -212 37 -99 130 -171 235
-180 45 -4 86 2 192 30 368 97 718 139 1185 139 466 1 879 -46 1292 -148 305
-74 559 -169 833 -311 l164 -85 76 4 c85 4 136 25 186 75 59 59 79 108 79 198
0 70 -4 87 -30 134 -38 69 -82 102 -262 194 -492 250 -1039 401 -1713 471
-200 21 -573 35 -780 29z"/>
<path d="M3690 3874 c-19 -2 -87 -9 -150 -15 -218 -20 -500 -75 -698 -135
-134 -40 -201 -118 -202 -232 0 -127 99 -231 222 -232 26 0 116 18 200 40 84
21 191 46 238 54 454 82 1003 78 1465 -10 384 -74 695 -179 992 -335 76 -39
160 -84 188 -98 192 -100 404 107 311 304 -30 64 -48 80 -181 156 -426 244
-953 409 -1555 485 -118 15 -739 28 -830 18z"/>
<path d="M3860 2903 c-337 -17 -894 -101 -997 -150 -109 -51 -132 -206 -44
-294 65 -65 92 -67 303 -26 392 78 650 102 1007 94 258 -6 403 -21 605 -63
309 -65 550 -157 864 -329 93 -50 132 -56 197 -26 75 34 125 122 110 194 -20
94 -72 136 -330 265 -494 246 -1111 367 -1715 335z"/>
<path d="M11640 3747 c-243 -83 -390 -304 -390 -587 0 -282 149 -509 388 -593
85 -30 245 -29 333 1 134 46 230 130 296 258 56 108 76 195 76 329 0 288 -137
508 -368 590 -96 34 -240 35 -335 2z"/>
<path d="M13982 3750 c-102 -27 -166 -64 -243 -141 -187 -186 -231 -492 -109
-748 74 -153 211 -264 380 -307 85 -22 240 -14 324 15 174 61 301 196 358 381
19 63 23 97 23 205 -1 119 -3 137 -31 215 -69 197 -212 332 -400 380 -97 25
-206 25 -302 0z"/>
<path d="M21056 4155 c-58 -22 -118 -76 -151 -136 -27 -48 -30 -63 -30 -139 0
-73 4 -92 27 -136 51 -98 126 -145 241 -152 124 -7 212 39 275 147 24 41 27
56 27 141 0 78 -4 102 -22 135 -26 48 -85 106 -133 131 -47 24 -181 29 -234 9z
m223 -129 c26 -25 31 -37 31 -77 0 -41 -4 -51 -36 -78 l-35 -32 34 -47 c53
-73 53 -72 10 -72 -35 1 -41 5 -78 60 -35 53 -44 60 -72 60 l-33 0 0 -60 0
-60 -35 0 -35 0 0 171 0 171 109 -4 c106 -3 111 -4 140 -32z"/>
<path d="M21099 3996 c-2 -2 -2 -27 -1 -55 l4 -51 43 0 c86 0 123 35 91 85
-14 22 -24 25 -75 25 -32 0 -60 -2 -62 -4z"/>
</g>
</svg>
